<mxfile host="app.diagrams.net" modified="2024-01-19T17:16:40.738Z" agent="Mozilla/5.0 (Macintosh; Intel Mac OS X 10_15_7) AppleWebKit/605.1.15 (KHTML, like Gecko) Version/17.2.1 Safari/605.1.15" etag="MXPVBth4UQckOoUh0cbF" version="22.1.21" type="device">
  <diagram name="Stránka-1" id="zcZAZY_MjUhqr-MsHy_0">
    <mxGraphModel dx="856" dy="732" grid="1" gridSize="10" guides="1" tooltips="1" connect="1" arrows="1" fold="1" page="1" pageScale="1" pageWidth="827" pageHeight="1169" math="0" shadow="0">
      <root>
        <mxCell id="0" />
        <mxCell id="1" parent="0" />
        <mxCell id="QZpNm03dxyMVAXIWUC1a-1" value="&lt;font style=&quot;font-size: 19px;&quot;&gt;Start&lt;/font&gt;" style="ellipse;whiteSpace=wrap;html=1;aspect=fixed;" vertex="1" parent="1">
          <mxGeometry x="341" y="100" width="80" height="80" as="geometry" />
        </mxCell>
        <mxCell id="QZpNm03dxyMVAXIWUC1a-2" value="" style="endArrow=classic;html=1;rounded=0;entryX=0.5;entryY=0;entryDx=0;entryDy=0;" edge="1" parent="1" target="QZpNm03dxyMVAXIWUC1a-6">
          <mxGeometry width="50" height="50" relative="1" as="geometry">
            <mxPoint x="380" y="280" as="sourcePoint" />
            <mxPoint x="379.5" y="300" as="targetPoint" />
          </mxGeometry>
        </mxCell>
        <mxCell id="QZpNm03dxyMVAXIWUC1a-3" value="NICKNAME_SET|⟨nickname⟩" style="text;html=1;strokeColor=none;fillColor=none;align=center;verticalAlign=middle;whiteSpace=wrap;rounded=0;fontFamily=Courier New;fontColor=#FF0000;" vertex="1" parent="1">
          <mxGeometry x="245" y="180" width="270" height="40" as="geometry" />
        </mxCell>
        <mxCell id="QZpNm03dxyMVAXIWUC1a-4" value="ACK" style="text;html=1;strokeColor=none;fillColor=none;align=center;verticalAlign=middle;whiteSpace=wrap;rounded=0;fontFamily=Courier New;" vertex="1" parent="1">
          <mxGeometry x="245" y="240" width="270" height="40" as="geometry" />
        </mxCell>
        <mxCell id="QZpNm03dxyMVAXIWUC1a-5" value="" style="endArrow=classic;html=1;rounded=0;" edge="1" parent="1">
          <mxGeometry width="50" height="50" relative="1" as="geometry">
            <mxPoint x="381" y="70" as="sourcePoint" />
            <mxPoint x="381" y="100" as="targetPoint" />
          </mxGeometry>
        </mxCell>
        <mxCell id="QZpNm03dxyMVAXIWUC1a-6" value="&lt;font style=&quot;font-size: 19px;&quot;&gt;Lobby&lt;/font&gt;" style="ellipse;whiteSpace=wrap;html=1;aspect=fixed;" vertex="1" parent="1">
          <mxGeometry x="340" y="310" width="80" height="80" as="geometry" />
        </mxCell>
        <mxCell id="QZpNm03dxyMVAXIWUC1a-7" value="&lt;font style=&quot;font-size: 19px;&quot;&gt;Room&lt;/font&gt;" style="ellipse;whiteSpace=wrap;html=1;aspect=fixed;" vertex="1" parent="1">
          <mxGeometry x="130" y="450" width="80" height="80" as="geometry" />
        </mxCell>
        <mxCell id="QZpNm03dxyMVAXIWUC1a-8" value="&lt;font style=&quot;font-size: 19px;&quot;&gt;Game&lt;/font&gt;" style="ellipse;whiteSpace=wrap;html=1;aspect=fixed;" vertex="1" parent="1">
          <mxGeometry x="539" y="430" width="80" height="80" as="geometry" />
        </mxCell>
        <mxCell id="QZpNm03dxyMVAXIWUC1a-9" value="" style="endArrow=none;html=1;rounded=0;exitX=0.5;exitY=0;exitDx=0;exitDy=0;" edge="1" parent="1" source="QZpNm03dxyMVAXIWUC1a-16">
          <mxGeometry width="50" height="50" relative="1" as="geometry">
            <mxPoint x="199" y="240" as="sourcePoint" />
            <mxPoint x="379" y="240" as="targetPoint" />
          </mxGeometry>
        </mxCell>
        <mxCell id="QZpNm03dxyMVAXIWUC1a-10" value="" style="endArrow=classic;html=1;rounded=0;exitX=0.5;exitY=1;exitDx=0;exitDy=0;entryX=0;entryY=0.5;entryDx=0;entryDy=0;" edge="1" parent="1" source="QZpNm03dxyMVAXIWUC1a-16" target="QZpNm03dxyMVAXIWUC1a-7">
          <mxGeometry width="50" height="50" relative="1" as="geometry">
            <mxPoint x="119.5" y="280" as="sourcePoint" />
            <mxPoint x="110" y="470" as="targetPoint" />
            <Array as="points">
              <mxPoint x="100" y="490" />
            </Array>
          </mxGeometry>
        </mxCell>
        <mxCell id="QZpNm03dxyMVAXIWUC1a-11" value="" style="endArrow=none;html=1;rounded=0;exitX=0.5;exitY=0;exitDx=0;exitDy=0;" edge="1" parent="1" source="QZpNm03dxyMVAXIWUC1a-18">
          <mxGeometry width="50" height="50" relative="1" as="geometry">
            <mxPoint x="559" y="240" as="sourcePoint" />
            <mxPoint x="379" y="240" as="targetPoint" />
          </mxGeometry>
        </mxCell>
        <mxCell id="QZpNm03dxyMVAXIWUC1a-12" value="" style="endArrow=classic;html=1;rounded=0;entryX=0.5;entryY=0;entryDx=0;entryDy=0;exitX=0.5;exitY=1;exitDx=0;exitDy=0;" edge="1" parent="1" source="QZpNm03dxyMVAXIWUC1a-18" target="QZpNm03dxyMVAXIWUC1a-8">
          <mxGeometry width="50" height="50" relative="1" as="geometry">
            <mxPoint x="559" y="240" as="sourcePoint" />
            <mxPoint x="509" y="350" as="targetPoint" />
          </mxGeometry>
        </mxCell>
        <mxCell id="QZpNm03dxyMVAXIWUC1a-15" value="" style="endArrow=none;html=1;rounded=0;" edge="1" parent="1">
          <mxGeometry width="50" height="50" relative="1" as="geometry">
            <mxPoint x="379.82" y="240" as="sourcePoint" />
            <mxPoint x="379.82" y="220" as="targetPoint" />
          </mxGeometry>
        </mxCell>
        <mxCell id="QZpNm03dxyMVAXIWUC1a-16" value="REJOIN|ROOM|⟨code⟩" style="text;html=1;strokeColor=none;fillColor=none;align=center;verticalAlign=middle;whiteSpace=wrap;rounded=0;fontFamily=Courier New;" vertex="1" parent="1">
          <mxGeometry x="30" y="240" width="139.5" height="40" as="geometry" />
        </mxCell>
        <mxCell id="QZpNm03dxyMVAXIWUC1a-18" value="REJOIN|GAME|⟨code⟩" style="text;html=1;strokeColor=none;fillColor=none;align=center;verticalAlign=middle;whiteSpace=wrap;rounded=0;fontFamily=Courier New;" vertex="1" parent="1">
          <mxGeometry x="459" y="240" width="240" height="40" as="geometry" />
        </mxCell>
        <mxCell id="QZpNm03dxyMVAXIWUC1a-20" value="ROOM_CREATE" style="text;html=1;strokeColor=none;fillColor=none;align=center;verticalAlign=middle;whiteSpace=wrap;rounded=0;fontFamily=Courier New;fontColor=#FF0000;" vertex="1" parent="1">
          <mxGeometry x="240" y="310" width="100" height="40" as="geometry" />
        </mxCell>
        <mxCell id="QZpNm03dxyMVAXIWUC1a-21" value="ROOM_JOIN|⟨code⟩" style="text;html=1;strokeColor=none;fillColor=none;align=center;verticalAlign=middle;whiteSpace=wrap;rounded=0;fontFamily=Courier New;fontColor=#FF0000;" vertex="1" parent="1">
          <mxGeometry x="210" y="370" width="140" height="40" as="geometry" />
        </mxCell>
        <mxCell id="QZpNm03dxyMVAXIWUC1a-22" value="" style="endArrow=none;html=1;rounded=0;exitX=0.5;exitY=0;exitDx=0;exitDy=0;entryX=0.5;entryY=1;entryDx=0;entryDy=0;" edge="1" parent="1" source="QZpNm03dxyMVAXIWUC1a-23" target="QZpNm03dxyMVAXIWUC1a-21">
          <mxGeometry width="50" height="50" relative="1" as="geometry">
            <mxPoint x="329.78" y="450" as="sourcePoint" />
            <mxPoint x="329.78" y="430" as="targetPoint" />
          </mxGeometry>
        </mxCell>
        <mxCell id="QZpNm03dxyMVAXIWUC1a-23" value="ACK" style="text;html=1;strokeColor=none;fillColor=none;align=center;verticalAlign=middle;whiteSpace=wrap;rounded=0;fontFamily=Courier New;" vertex="1" parent="1">
          <mxGeometry x="250" y="450" width="60" height="40" as="geometry" />
        </mxCell>
        <mxCell id="QZpNm03dxyMVAXIWUC1a-24" value="" style="endArrow=classic;html=1;rounded=0;entryX=0.93;entryY=0.251;entryDx=0;entryDy=0;entryPerimeter=0;" edge="1" parent="1" source="QZpNm03dxyMVAXIWUC1a-23" target="QZpNm03dxyMVAXIWUC1a-7">
          <mxGeometry width="50" height="50" relative="1" as="geometry">
            <mxPoint x="310" y="450" as="sourcePoint" />
            <mxPoint x="198" y="462" as="targetPoint" />
          </mxGeometry>
        </mxCell>
        <mxCell id="QZpNm03dxyMVAXIWUC1a-25" value="ROOM_LEAVE" style="text;html=1;strokeColor=none;fillColor=none;align=center;verticalAlign=middle;whiteSpace=wrap;rounded=0;fontFamily=Courier New;fontColor=#FF0000;" vertex="1" parent="1">
          <mxGeometry x="139.5" y="410" width="101" height="40" as="geometry" />
        </mxCell>
        <mxCell id="QZpNm03dxyMVAXIWUC1a-26" value="ROOM_LEAVE" style="text;html=1;strokeColor=none;fillColor=none;align=center;verticalAlign=middle;whiteSpace=wrap;rounded=0;fontFamily=Courier New;fontColor=#FF0000;" vertex="1" parent="1">
          <mxGeometry x="439" y="450" width="110" height="40" as="geometry" />
        </mxCell>
        <mxCell id="QZpNm03dxyMVAXIWUC1a-27" value="TURN|⟨field⟩" style="text;html=1;strokeColor=none;fillColor=none;align=center;verticalAlign=middle;whiteSpace=wrap;rounded=0;fontFamily=Courier New;fontColor=#FF0000;" vertex="1" parent="1">
          <mxGeometry x="620" y="450" width="120" height="40" as="geometry" />
        </mxCell>
        <mxCell id="QZpNm03dxyMVAXIWUC1a-28" value="TURN_RESULT|⟨field⟩|[HIT|MISS]" style="text;html=1;strokeColor=none;fillColor=none;align=center;verticalAlign=middle;whiteSpace=wrap;rounded=0;fontFamily=Courier New;" vertex="1" parent="1">
          <mxGeometry x="459" y="540" width="240" height="40" as="geometry" />
        </mxCell>
        <mxCell id="QZpNm03dxyMVAXIWUC1a-31" value="" style="endArrow=none;html=1;rounded=0;entryX=0.5;entryY=1;entryDx=0;entryDy=0;exitX=0.5;exitY=0;exitDx=0;exitDy=0;" edge="1" parent="1" source="QZpNm03dxyMVAXIWUC1a-26" target="QZpNm03dxyMVAXIWUC1a-33">
          <mxGeometry width="50" height="50" relative="1" as="geometry">
            <mxPoint x="580" y="380" as="sourcePoint" />
            <mxPoint x="515" y="370" as="targetPoint" />
          </mxGeometry>
        </mxCell>
        <mxCell id="QZpNm03dxyMVAXIWUC1a-40" value="" style="edgeStyle=orthogonalEdgeStyle;rounded=0;orthogonalLoop=1;jettySize=auto;html=1;exitX=0;exitY=0.5;exitDx=0;exitDy=0;entryX=0.989;entryY=0.629;entryDx=0;entryDy=0;entryPerimeter=0;" edge="1" parent="1" source="QZpNm03dxyMVAXIWUC1a-33" target="QZpNm03dxyMVAXIWUC1a-6">
          <mxGeometry relative="1" as="geometry">
            <mxPoint x="420" y="360" as="targetPoint" />
          </mxGeometry>
        </mxCell>
        <mxCell id="QZpNm03dxyMVAXIWUC1a-33" value="ACK" style="text;html=1;strokeColor=none;fillColor=none;align=center;verticalAlign=middle;whiteSpace=wrap;rounded=0;fontFamily=Courier New;" vertex="1" parent="1">
          <mxGeometry x="466.5" y="340" width="55" height="40" as="geometry" />
        </mxCell>
        <mxCell id="QZpNm03dxyMVAXIWUC1a-34" value="" style="endArrow=classic;html=1;rounded=0;exitX=0.5;exitY=1;exitDx=0;exitDy=0;entryX=0.127;entryY=0.17;entryDx=0;entryDy=0;entryPerimeter=0;" edge="1" parent="1" source="QZpNm03dxyMVAXIWUC1a-35" target="QZpNm03dxyMVAXIWUC1a-7">
          <mxGeometry width="50" height="50" relative="1" as="geometry">
            <mxPoint x="170" y="330" as="sourcePoint" />
            <mxPoint x="140" y="460" as="targetPoint" />
          </mxGeometry>
        </mxCell>
        <mxCell id="QZpNm03dxyMVAXIWUC1a-35" value="ACK" style="text;html=1;strokeColor=none;fillColor=none;align=center;verticalAlign=middle;whiteSpace=wrap;rounded=0;fontFamily=Courier New;" vertex="1" parent="1">
          <mxGeometry x="109.5" y="310" width="60" height="40" as="geometry" />
        </mxCell>
        <mxCell id="QZpNm03dxyMVAXIWUC1a-36" value="" style="endArrow=none;html=1;rounded=0;entryX=1;entryY=0.5;entryDx=0;entryDy=0;exitX=0;exitY=0.5;exitDx=0;exitDy=0;" edge="1" parent="1" source="QZpNm03dxyMVAXIWUC1a-20" target="QZpNm03dxyMVAXIWUC1a-35">
          <mxGeometry width="50" height="50" relative="1" as="geometry">
            <mxPoint x="400" y="470" as="sourcePoint" />
            <mxPoint x="450" y="420" as="targetPoint" />
          </mxGeometry>
        </mxCell>
        <mxCell id="QZpNm03dxyMVAXIWUC1a-37" value="ACK" style="text;html=1;strokeColor=none;fillColor=none;align=center;verticalAlign=middle;whiteSpace=wrap;rounded=0;fontFamily=Courier New;" vertex="1" parent="1">
          <mxGeometry x="160" y="340" width="60" height="40" as="geometry" />
        </mxCell>
        <mxCell id="QZpNm03dxyMVAXIWUC1a-38" value="" style="endArrow=classic;html=1;rounded=0;exitX=1;exitY=0.5;exitDx=0;exitDy=0;entryX=0.013;entryY=0.625;entryDx=0;entryDy=0;entryPerimeter=0;" edge="1" parent="1" source="QZpNm03dxyMVAXIWUC1a-37" target="QZpNm03dxyMVAXIWUC1a-6">
          <mxGeometry width="50" height="50" relative="1" as="geometry">
            <mxPoint x="400" y="450" as="sourcePoint" />
            <mxPoint x="340" y="360" as="targetPoint" />
          </mxGeometry>
        </mxCell>
        <mxCell id="QZpNm03dxyMVAXIWUC1a-39" value="" style="endArrow=none;html=1;rounded=0;entryX=0.5;entryY=1;entryDx=0;entryDy=0;exitX=0.5;exitY=0;exitDx=0;exitDy=0;" edge="1" parent="1" source="QZpNm03dxyMVAXIWUC1a-25" target="QZpNm03dxyMVAXIWUC1a-37">
          <mxGeometry width="50" height="50" relative="1" as="geometry">
            <mxPoint x="400" y="450" as="sourcePoint" />
            <mxPoint x="450" y="400" as="targetPoint" />
          </mxGeometry>
        </mxCell>
        <mxCell id="QZpNm03dxyMVAXIWUC1a-41" value="" style="endArrow=classic;html=1;rounded=0;entryX=0.5;entryY=1;entryDx=0;entryDy=0;exitX=0.5;exitY=0;exitDx=0;exitDy=0;" edge="1" parent="1" source="QZpNm03dxyMVAXIWUC1a-28" target="QZpNm03dxyMVAXIWUC1a-8">
          <mxGeometry width="50" height="50" relative="1" as="geometry">
            <mxPoint x="550" y="470" as="sourcePoint" />
            <mxPoint x="600" y="420" as="targetPoint" />
          </mxGeometry>
        </mxCell>
        <mxCell id="QZpNm03dxyMVAXIWUC1a-42" value="" style="endArrow=none;html=1;rounded=0;exitX=1;exitY=0.5;exitDx=0;exitDy=0;" edge="1" parent="1" source="QZpNm03dxyMVAXIWUC1a-28">
          <mxGeometry width="50" height="50" relative="1" as="geometry">
            <mxPoint x="550" y="470" as="sourcePoint" />
            <mxPoint x="730" y="470" as="targetPoint" />
            <Array as="points">
              <mxPoint x="730" y="560" />
            </Array>
          </mxGeometry>
        </mxCell>
        <mxCell id="QZpNm03dxyMVAXIWUC1a-44" value="BOARD_READY|⟨field⟩|⟨field⟩|..." style="text;html=1;strokeColor=none;fillColor=none;align=center;verticalAlign=middle;whiteSpace=wrap;rounded=0;fontFamily=Courier New;fontColor=#FF0000;" vertex="1" parent="1">
          <mxGeometry x="60" y="530" width="241" height="40" as="geometry" />
        </mxCell>
        <mxCell id="QZpNm03dxyMVAXIWUC1a-45" value="ACK" style="text;html=1;strokeColor=none;fillColor=none;align=center;verticalAlign=middle;whiteSpace=wrap;rounded=0;fontFamily=Courier New;" vertex="1" parent="1">
          <mxGeometry x="250" y="490" width="60" height="40" as="geometry" />
        </mxCell>
        <mxCell id="QZpNm03dxyMVAXIWUC1a-46" value="" style="endArrow=classic;html=1;rounded=0;entryX=0.936;entryY=0.743;entryDx=0;entryDy=0;exitX=0;exitY=0.5;exitDx=0;exitDy=0;entryPerimeter=0;" edge="1" parent="1" source="QZpNm03dxyMVAXIWUC1a-45" target="QZpNm03dxyMVAXIWUC1a-7">
          <mxGeometry width="50" height="50" relative="1" as="geometry">
            <mxPoint x="250" y="511" as="sourcePoint" />
            <mxPoint x="210" y="511" as="targetPoint" />
          </mxGeometry>
        </mxCell>
        <mxCell id="QZpNm03dxyMVAXIWUC1a-47" value="" style="endArrow=none;html=1;rounded=0;entryX=1;entryY=0.5;entryDx=0;entryDy=0;" edge="1" parent="1" target="QZpNm03dxyMVAXIWUC1a-45">
          <mxGeometry width="50" height="50" relative="1" as="geometry">
            <mxPoint x="310" y="550" as="sourcePoint" />
            <mxPoint x="290" y="470" as="targetPoint" />
            <Array as="points">
              <mxPoint x="330" y="550" />
              <mxPoint x="330" y="510" />
            </Array>
          </mxGeometry>
        </mxCell>
      </root>
    </mxGraphModel>
  </diagram>
</mxfile>
